<?xml version="1.0" encoding="UTF-8"?>
<svg width="116px" height="35px" viewBox="0 0 116 35" version="1.1" xmlns="http://www.w3.org/2000/svg" xmlns:xlink="http://www.w3.org/1999/xlink">
    <!-- Generator: Sketch 52.2 (67145) - http://www.bohemiancoding.com/sketch -->
    <title>Group 2</title>
    <desc>Created with Sketch.</desc>
    <g id="Page-1" stroke="none" stroke-width="1" fill="none" fill-rule="evenodd">
        <g id="Group-2">
            <text id="rent-Equus" font-family="PrinceValiant, Prince Valiant" font-size="20" font-weight="normal" fill="#464D77">
                <tspan x="36" y="23">rent-Equus</tspan>
            </text>
            <g id="noun_Shield_3071295">
                <g id="Group">
                    <g transform="translate(4.227273, 6.428571)" fill="#36827F" id="Path">
                        <path d="M14.4589478,0.451545794 C14.3974792,0.455823571 14.3376608,0.472934683 14.2815552,0.501595794 C12.6046995,1.31338968 12.145665,2.22305913 11.4436439,3.36180357 C11.3594855,3.3746369 11.0946341,3.68905357 10.6317218,3.78573135 C10.1077534,3.89567024 9.5047421,4.03769246 9.03634296,4.2535919 C7.66579901,4.88490635 6.42372035,5.81125913 5.35408385,6.86034135 C3.56410939,8.6160269 1.07557912,12.6086052 1.07557912,12.608648 C0.672526495,13.2436841 1.59104919,13.870293 1.99414308,13.2352569 C1.99414308,13.2352569 4.569637,9.19147357 6.11150926,7.67915079 C7.10911608,6.7006519 8.24954463,5.85617579 9.47949458,5.2896269 C9.76662317,5.15744357 10.3561856,4.99189357 10.8492547,4.88879913 C11.3423651,4.78570468 11.7436438,4.73009357 11.7436438,4.73009357 C11.9787922,4.69587135 12.1643119,4.50508246 12.2029257,4.26219024 C12.3539158,3.34512024 13.1371662,2.35875024 14.2007384,1.71455968 C14.3711179,2.37718746 14.437537,3.21002802 14.2655073,4.37918746 C14.2325041,4.58665968 14.3133621,4.79541524 14.4750782,4.92225135 C15.1099789,5.40730857 15.3990052,5.9060119 15.63535,6.47628246 C15.871736,7.04655302 16.0346897,7.69882857 16.4088645,8.3561519 L18.6327084,12.2663402 C18.4957448,12.7380508 18.3509428,13.1782341 18.1331624,13.4610808 C17.9202912,13.7374252 17.5927336,13.8820141 17.1582041,13.9707352 C17.0224781,13.8244352 16.9238808,13.7063686 16.6103083,13.4026036 C16.1490049,12.9562175 15.5986751,12.4501136 15.0471489,12.1660691 C14.4336178,11.8499413 13.8004498,11.8559302 13.2745012,11.8234191 C12.7485938,11.7891969 12.3540395,11.7267413 12.0981403,11.5226913 C11.8654671,11.336608 11.4721505,10.6605908 11.2279262,10.0522052 C10.9837018,9.4437769 10.8413752,8.91589913 10.8413752,8.91589913 C10.6796591,8.1255369 9.5299071,8.46497857 9.79393339,9.22518246 C9.79393339,9.22518246 9.94946137,9.81063913 10.2209547,10.4867847 C10.4924067,11.1629302 10.8304428,11.9384913 11.4295762,12.4167897 C11.9959126,12.868908 12.654617,12.9173752 13.2102685,12.9515119 C13.7659201,12.9857341 14.2400123,13.0143952 14.5558537,13.1769508 C14.8726853,13.3403619 15.4300695,13.8125002 15.861175,14.2296691 C16.2922804,14.6467525 16.6185591,15.0066847 16.6185591,15.0066847 C16.7344832,15.1345902 16.9011497,15.1991847 17.0697965,15.1820736 C17.9191774,15.0999402 18.5728899,14.7097213 18.9874525,14.1711063 C19.402015,13.6324913 19.6056865,12.9880013 19.7690115,12.3663975 C19.8061402,12.2196697 19.7855132,12.063103 19.7124934,11.9319463 L17.3436,7.77950746 C17.0680226,7.2954769 16.9119996,6.70266246 16.6345657,6.03331857 C16.3903414,5.44358413 15.9403828,4.81962746 15.3050696,4.25367746 C15.4684359,2.55963468 15.1648056,1.96694857 15.0109278,1.00273746 C14.9663734,0.707998571 14.7452514,0.424766905 14.4589066,0.451503016 L14.4589478,0.451545794 Z"></path>
                        <path d="M10.3981823,10.7789997 C10.1712847,14.108608 11.0773899,15.7358319 11.9129919,17.0953952 C12.7485938,18.4550013 13.4946331,19.5330441 13.3391464,22.4426175 L14.4268934,22.5093508 C14.5947976,19.3643286 13.6577518,17.8296758 12.8315146,16.4853413 C12.0052773,15.1410497 11.2741308,13.9720613 11.4859293,10.8624163 L10.3981823,10.7789997 Z"></path>
                        <path d="M11.6470679,2.70803079 C8.27260567,2.0356069 5.5991745,2.8252419 3.25123824,4.14510746 C2.8391097,4.37482413 2.86427471,5.04575079 3.31559464,5.17275802 L3.8143568,5.31306913 C2.27372216,6.08944302 0.911387777,7.18314246 0.302105865,8.92432635 C0.0211653943,9.64508913 0.745174978,10.7082452 0.984325038,9.97135524 C1.48395353,8.34725413 3.25948906,6.33609968 5.32190565,5.82464857 C5.72289557,5.67022079 5.77933119,4.71862913 4.89554445,4.60556746 C6.85701223,3.55387579 9.01385947,3.34319524 11.4457478,3.8277819 C12.1686436,3.97151524 12.3713663,2.84414968 11.6470679,2.7082019 L11.6470679,2.70803079 Z"></path>
                        <path d="M4.79826726,12.4165758 C4.78706831,12.4185332 4.77603373,12.4213937 4.76526398,12.4251313 L2.75899423,12.9264013 C2.68268292,12.945788 2.62214766,13.0059261 2.60020066,13.0841531 C2.57825365,13.16238 2.59823076,13.2468056 2.65260378,13.3056148 C2.70697681,13.364424 2.78748123,13.388678 2.86377966,13.3692369 L4.87009066,12.8679241 C4.99020019,12.8470898 5.07129791,12.7292601 5.05125365,12.6047061 C5.03120938,12.4801522 4.91760899,12.3960121 4.79748343,12.4167469 L4.79826726,12.4165758 Z"></path>
                        <path d="M4.62099836,13.2938625 C4.60979941,13.2958199 4.59876483,13.2986804 4.58799508,13.302418 L3.13762442,13.7284847 C3.05915704,13.7476088 2.99723541,13.8100088 2.97655861,13.8907948 C2.95588181,13.9715808 2.97981421,14.0576079 3.03880976,14.1145619 C3.0978053,14.1715159 3.18226465,14.1901296 3.25849896,14.1629786 L4.70882836,13.7369119 C4.82178778,13.7068332 4.89200429,13.590007 4.86828873,13.4716019 C4.84457316,13.3531968 4.73530025,13.2750255 4.62013203,13.2940763 L4.62099836,13.2938625 Z"></path>
                        <path d="M5.12054435,14.2463525 C5.10655944,14.2478206 5.09274394,14.2506857 5.07929024,14.254908 L3.63700539,14.6809747 C3.53373136,14.7232395 3.47749383,14.8391439 3.50631533,14.9503242 C3.53513684,15.0615044 3.63983774,15.1325497 3.74962911,15.1154258 L5.1999585,14.6893591 C5.30770055,14.656662 5.37396836,14.5445688 5.35318526,14.4301733 C5.33240217,14.3157777 5.23134312,14.2363711 5.119513,14.2465663 L5.12054435,14.2463525 Z"></path>
                        <path d="M5.63622069,14.9983002 C5.6333974,15.0010754 5.63064614,15.0039282 5.62796987,15.0068558 L4.17764047,15.4329225 C4.09904999,15.4519254 4.03697782,15.5143317 4.01623275,15.5951989 C3.99548768,15.6760661 4.01945337,15.7622044 4.07855129,15.8191862 C4.13764921,15.876168 4.22224011,15.8946993 4.29851501,15.8673736 L5.74079985,15.4413069 C5.85871849,15.4113025 5.93085341,15.2878566 5.90191771,15.1655828 C5.87298202,15.0433089 5.75393307,14.9685098 5.63601442,14.9985141 L5.63622069,14.9983002 Z"></path>
                        <path d="M6.17607194,15.9424058 C6.15657389,15.9454371 6.13756167,15.9511932 6.11955381,15.9595169 L4.66922441,16.377028 C4.59292352,16.3994057 4.53393462,16.4622977 4.51448309,16.5420081 C4.49503156,16.6217184 4.51807332,16.7061341 4.57492687,16.7634497 C4.63178042,16.8207652 4.71380612,16.8422708 4.79009895,16.8198636 L6.2404696,16.3937969 C6.35969074,16.3743639 6.44153825,16.2589387 6.4238799,16.135143 C6.40622155,16.0113474 6.29565476,15.9254331 6.17611319,15.9426197 L6.17607194,15.9424058 Z"></path>
                        <path d="M6.73205354,16.5021958 C6.7121374,16.5079339 6.69310804,16.5165757 6.67553542,16.5278625 L5.32990894,17.2129913 C5.25938439,17.24883 5.21265573,17.3209604 5.20732519,17.4022116 C5.20199464,17.4834627 5.23887206,17.5614908 5.30406607,17.6069032 C5.36926008,17.6523157 5.45286616,17.6582134 5.52339071,17.6223747 L6.86897593,16.9289041 C6.96794703,16.8794515 7.01606377,16.7614425 6.98132225,16.6533685 C6.94658073,16.5452945 6.83980391,16.4808237 6.73201229,16.5028375 L6.73205354,16.5021958 Z"></path>
                        <path d="M7.42499878,17.3376886 C7.39134262,17.3384125 7.35830377,17.3471969 7.32846417,17.3633552 L5.98287895,18.0568258 C5.87385745,18.1122276 5.82879042,18.2487833 5.88221893,18.3618313 C5.93564745,18.4748794 6.06733921,18.521611 6.17636072,18.4662091 L7.52194594,17.7727386 C7.61946036,17.7298381 7.67320737,17.6205434 7.64942631,17.5135069 C7.62564525,17.4064704 7.53119826,17.3325781 7.42541133,17.3382447 L7.42499878,17.3376886 Z"></path>
                        <path d="M8.16625258,17.9476141 C8.13808577,17.9506782 8.11076296,17.9593958 8.08580708,17.9732808 L6.74022186,18.6667513 C6.66969731,18.70259 6.62296864,18.7747204 6.6176381,18.8559716 C6.61230756,18.9372227 6.64918497,19.0152508 6.71437898,19.0606632 C6.77957299,19.1060757 6.86317907,19.1119734 6.93370362,19.0761347 L8.27928884,18.3826641 C8.38278505,18.3404666 8.43915356,18.224344 8.41018598,18.1130081 C8.3812184,18.0016722 8.27617285,17.9307061 8.16625258,17.948213 L8.16625258,17.9476141 Z"></path>
                        <path d="M8.95589745,18.632743 C8.92773064,18.6358071 8.90040783,18.6445246 8.87545194,18.6584097 L7.52986673,19.3518802 C7.44884546,19.3799373 7.39104575,19.4544131 7.38194207,19.5424834 C7.37283839,19.6305537 7.4141031,19.71604 7.4875493,19.7612653 C7.5609955,19.8064906 7.65313109,19.8031469 7.72334849,19.752708 L9.06893371,19.0675791 C9.17220774,19.0253143 9.22844528,18.9094099 9.19962377,18.7982297 C9.17080226,18.6870494 9.06610136,18.6160041 8.95630999,18.633128 L8.95589745,18.632743 Z"></path>
                        <path d="M9.58436252,19.2928041 C9.54791536,19.2921547 9.51189146,19.3009786 9.47957709,19.3184708 L8.13399187,20.0119413 C8.06332032,20.0476912 8.01644529,20.1198601 8.01106125,20.2012057 C8.0056772,20.2825512 8.04260415,20.360684 8.10790286,20.4061105 C8.17320156,20.4515369 8.25692672,20.4573383 8.32747364,20.4213247 L9.67305886,19.7278541 C9.76879496,19.6853038 9.82221111,19.5785525 9.80063884,19.4728875 C9.77906658,19.3672226 9.68851438,19.2920746 9.58436252,19.293403 L9.58436252,19.2928041 Z"></path>
                        <path d="M10.3014827,19.8860036 C10.2815665,19.8917417 10.2625372,19.9003835 10.2449645,19.9116702 L8.89129352,20.5967563 C8.78250692,20.652291 8.73762812,20.7886771 8.79098869,20.9015814 C8.84434926,21.0144857 8.97579649,21.0612676 9.08477528,21.0061397 L10.4384051,20.3126691 C10.5373762,20.2632165 10.5854929,20.1452075 10.5507514,20.0371335 C10.5160099,19.9290595 10.409233,19.8645887 10.3014414,19.8866025 L10.3014827,19.8860036 Z"></path>
                        <path d="M10.9944279,20.4207258 C10.9689543,20.4247708 10.9443726,20.4334605 10.9218207,20.4463925 L9.56819091,21.139863 C9.48716965,21.16792 9.42936994,21.2423958 9.42026626,21.3304662 C9.41116258,21.4185365 9.45242729,21.5040228 9.52587349,21.5492481 C9.59931969,21.5944734 9.69145527,21.5911297 9.76167268,21.5406908 L11.1153437,20.8555619 C11.2251601,20.8162198 11.2860247,20.6945868 11.2538186,20.5788308 C11.2216126,20.4630748 11.1076194,20.3937514 10.9944692,20.4211108 L10.9944279,20.4207258 Z"></path>
                        <path d="M11.6309788,20.9470636 C11.6055052,20.9511086 11.5809234,20.9597983 11.5583716,20.9727302 L10.2047005,21.6662008 C10.1153787,21.7303629 10.0851556,21.8528713 10.1337916,21.9536283 C10.1824276,22.0543854 10.2951171,22.1027192 10.3981823,22.0670286 L11.7518121,21.3819425 C11.8618394,21.3427559 11.9229072,21.2209904 11.8906624,21.1050836 C11.8584175,20.9891767 11.7441878,20.9198471 11.6309375,20.9474486 L11.6309788,20.9470636 Z"></path>
                        <path d="M12.2030495,21.4734441 C12.1831334,21.4791822 12.164104,21.487824 12.1465314,21.4991108 L10.8009462,22.1842397 C10.6919246,22.2396415 10.6468576,22.3761972 10.7002861,22.4892452 C10.7537146,22.6022933 10.8854064,22.6490248 10.9944279,22.593623 L12.3400131,21.9001525 C12.4389842,21.8506998 12.487101,21.7326908 12.4523595,21.6246169 C12.4176179,21.5165429 12.3108411,21.452072 12.2030495,21.4740858 L12.2030495,21.4734441 Z"></path>
                        <path d="M5.35420761,11.3805836 C5.34300866,11.382541 5.33197408,11.3854015 5.32120433,11.3891391 L3.31489332,11.8904519 C3.23861332,11.9098614 3.17811369,11.9699943 3.15618405,12.0481993 C3.13425441,12.1264043 3.1542264,12.2108002 3.20857677,12.2695957 C3.26292713,12.3283913 3.34339875,12.3526541 3.41967876,12.3332447 L5.41794521,11.8319319 C5.53715367,11.8124976 5.6189904,11.6970826 5.60133222,11.5732998 C5.58367404,11.4495171 5.47311816,11.3636126 5.3535888,11.3807975 L5.35420761,11.3805836 Z"></path>
                        <path d="M5.97462813,10.3696163 C5.96901379,10.3722258 5.96350832,10.3750802 5.95812649,10.3781719 L3.95986004,10.8794847 C3.87278121,10.8841032 3.7967023,10.9420041 3.76634636,11.0267609 C3.73599042,11.1115176 3.75717896,11.206876 3.82024136,11.2693137 C3.88330375,11.3317513 3.97614621,11.3492943 4.05639465,11.3139358 L6.06270565,10.812623 C6.17544879,10.7823569 6.24543409,10.6656576 6.22174974,10.5474198 C6.19806539,10.429182 6.08905042,10.351036 5.97400932,10.3698302 L5.97462813,10.3696163 Z"></path>
                        <path d="M6.61922356,9.45892024 L4.62099836,9.96019024 C4.54468705,9.97957691 4.4841518,10.039715 4.46220479,10.1179419 C4.44025779,10.1961689 4.4602349,10.2805945 4.51460792,10.3394037 C4.56898094,10.3982129 4.64948537,10.4224669 4.7257838,10.4030258 L6.72400899,9.90171302 C6.80028901,9.88230359 6.86078867,9.82217061 6.88271832,9.74396559 C6.90464796,9.66576058 6.88467597,9.58136473 6.83032559,9.52256917 C6.77597521,9.4637736 6.69550357,9.43951077 6.61922356,9.45892024 Z"></path>
                        <path d="M7.61031223,8.48136246 C7.59911329,8.48331988 7.5880787,8.48618041 7.57730895,8.48991802 L5.57099795,8.99123079 C5.48565775,8.99985506 5.413087,9.05947997 5.38547784,9.14365611 C5.35786868,9.22783225 5.38033337,9.32097313 5.44290664,9.38176176 C5.50547991,9.44255039 5.59657537,9.45973084 5.67578338,9.4256819 L7.68209438,8.93275357 C7.80220391,8.91191921 7.88330163,8.79408951 7.86325736,8.66953556 C7.8432131,8.54498161 7.72961271,8.46084156 7.60948715,8.48157635 L7.61031223,8.48136246 Z"></path>
                        <path d="M8.35965184,7.59573413 C8.34845289,7.59769154 8.33741831,7.60055208 8.32664855,7.60428968 L6.32033755,8.10560246 C6.24402624,8.12498914 6.18349099,8.18512721 6.16154398,8.26335417 C6.13959698,8.34158112 6.15957409,8.42600674 6.21394711,8.48481594 C6.26832013,8.54362514 6.34882456,8.56787913 6.42512298,8.54843802 L8.43143399,8.04712524 C8.55154352,8.02629088 8.63264124,7.90846117 8.61259697,7.78390723 C8.5925527,7.65935328 8.47895231,7.57521322 8.35882676,7.59594802 L8.35965184,7.59573413 Z"></path>
                        <path d="M9.39904907,6.62656079 C9.39622578,6.62933591 9.39347453,6.63218878 9.39079825,6.63511635 L7.38448725,7.13642913 C7.29914706,7.14505339 7.22657631,7.2046783 7.19896715,7.28885444 C7.17135799,7.37303058 7.19382267,7.46617147 7.25639594,7.5269601 C7.31896921,7.58774873 7.41006468,7.60492917 7.48927268,7.57088024 L9.48753913,7.0779519 C9.60766485,7.05252936 9.68518199,6.93095641 9.66069325,6.80638802 C9.63620451,6.68181962 9.51898006,6.60141084 9.3988428,6.62677468 L9.39904907,6.62656079 Z"></path>
                        <path d="M10.6838257,5.51989968 C10.6726268,5.5218571 10.6615922,5.52471763 10.6508225,5.52845524 L8.64451145,6.02972524 C8.56820014,6.04911191 8.50766489,6.10924999 8.48571788,6.18747694 C8.46377088,6.2657039 8.48374798,6.35012951 8.53812101,6.40893871 C8.59249403,6.46774792 8.67299846,6.49200191 8.74929688,6.47256079 L10.7475633,5.97124802 C10.8667845,5.95181501 10.948632,5.83638977 10.9309736,5.71259412 C10.9133153,5.58879847 10.8027485,5.50288423 10.6832069,5.52007079 L10.6838257,5.51989968 Z"></path>
                        <path d="M11.5504095,8.5732919 C11.4806043,8.57491004 11.4157561,8.61105133 11.3759403,8.67052746 C11.3361244,8.73000359 11.3261443,8.80563921 11.3490895,8.87401968 C11.3490895,8.87401968 11.464601,9.26329746 11.655195,9.70951246 C11.8457889,10.1557275 12.0936023,10.6611469 12.4447986,10.9460469 C12.8614238,11.2839913 13.3979747,11.3819952 13.8951692,11.4473597 C14.3923225,11.5128097 14.8669097,11.5517375 15.1360103,11.6813541 C15.620251,11.914493 16.0464884,12.5753241 16.0464884,12.5753241 C16.0887952,12.6460316 16.1647089,12.6874405 16.2448676,12.6835349 C16.3250263,12.6796293 16.3968609,12.6310215 16.4325873,12.556512 C16.4683137,12.4820025 16.4623299,12.3932745 16.4169503,12.3246463 C16.4169503,12.3246463 15.9758201,11.5907508 15.3131141,11.271928 C14.9174873,11.0815669 14.4306888,11.0593225 13.9513986,10.9960113 C13.4721083,10.933128 13.0187257,10.8385891 12.7186021,10.5951836 C12.5049058,10.4219336 12.2376617,9.94650135 12.0578763,9.52573913 C11.8780084,9.10523357 11.7678599,8.7403819 11.7678599,8.7403819 C11.7414943,8.63914522 11.6515323,8.56993401 11.5504508,8.57312079 L11.5504095,8.5732919 Z"></path>
                        <path d="M21.5980124,3.87774635 C21.4666932,3.87929917 21.3550631,3.97761731 21.3323359,4.11174079 L20.373508,9.36703357 C20.3411086,9.47085748 20.3691666,9.5847473 20.4456186,9.65973704 C20.5220706,9.73472679 20.6332923,9.7574527 20.7314648,9.71814396 C20.8296374,9.67883522 20.8972656,9.58449696 20.9052734,9.47568913 L21.8721872,4.22039635 C21.889875,4.13550658 21.8689916,4.04689587 21.8155393,3.9800335 C21.762087,3.91317113 21.6819861,3.87546257 21.5982599,3.87774635 L21.5980124,3.87774635 Z"></path>
                        <path d="M13.1054831,6.74351524 C12.9681801,6.80456596 12.8738538,6.9383283 12.8593788,7.09251096 C12.8449038,7.24669362 12.9125791,7.39680921 13.0359486,7.48417351 C13.159318,7.57153782 13.3187881,7.58227558 13.4520176,7.51218913 C13.6896413,7.39754468 13.995953,7.4779669 14.1852681,7.65421135 C14.3746245,7.83259468 14.4426937,7.99643357 14.2818027,8.25579524 C14.2026412,8.38414211 14.1955263,8.5465315 14.2631382,8.68179284 C14.3307501,8.81705419 14.4628169,8.90463804 14.6095904,8.91155239 C14.7563638,8.91846674 14.8955453,8.84366113 14.9747067,8.71531413 C15.3414557,8.12356913 15.1450862,7.41581079 14.7329576,7.02760246 C14.3208291,6.63960802 13.6833294,6.46434746 13.1053593,6.74355802 L13.1054831,6.74351524 Z"></path>
                    </g>
                    <path d="M8.67100219,0.230140556 C8.47009469,0.247251667 8.29352711,0.373446111 8.21172021,0.564235 C7.27013647,2.73306833 6.13932013,3.927595 4.90012926,4.67488 C3.66093838,5.422165 2.28041093,5.71801611 0.81498253,5.936525 C0.531154272,5.97930278 0.32674017,6.24153056 0.347656002,6.53806611 C0.347656002,6.53806611 0.571253264,9.51775222 1.15338997,13.1218228 C1.73552668,16.7259361 2.65252298,20.9463917 4.14270384,23.5656322 C5.51518674,25.9778711 8.37166239,28.6015606 10.9029319,30.6841111 C13.4341602,32.7666617 15.6406774,34.27676 15.6406774,34.2768028 C15.832509,34.4094139 16.0842003,34.4025694 16.2691837,34.2596917 C16.2691837,34.2596917 18.419719,32.6095389 20.8941404,30.3662294 C23.368603,28.1229628 26.1710358,25.3163983 27.509319,22.8383672 C28.822231,20.4072206 29.6438478,16.5480661 30.1843591,13.2551183 C30.7249117,9.96217056 30.9578736,7.24787778 30.9578736,7.24787778 C30.9826261,6.98008889 30.8196724,6.73202056 30.5713226,6.65463556 C25.3019768,4.98668722 24.5302774,3.11019722 23.2551955,0.989916667 C23.1578358,0.83335 22.9919943,0.736244444 22.8120026,0.731111111 L8.72760283,0.229798333 C8.70697577,0.228771667 8.69047413,0.228771667 8.6710847,0.229798333 L8.67100219,0.230140556 Z M9.23032538,1.37893778 L22.5217387,1.85103333 C23.6649725,3.76495389 25.0825462,5.86897889 29.8217768,7.50736778 C29.7970243,7.80552889 29.6126184,10.0170972 29.1127424,13.0634739 C28.5803169,16.3070133 27.7129493,20.1348972 26.5504498,22.2874322 C25.3626203,24.4868944 22.6150967,27.3042389 20.1770203,29.5145239 C17.9030526,31.5761133 16.1816837,32.8903322 15.9226904,33.0904894 C15.652476,32.9035506 13.8988877,31.7066711 11.5797468,29.7986111 C9.08894755,27.7493417 6.2821006,25.1067444 5.07739815,22.9892444 C3.75491524,20.6648283 2.80673083,16.4894178 2.23309247,12.938135 C1.69938808,9.63376556 1.50442117,7.39079833 1.47480072,7.02124111 C2.80895855,6.80050778 4.18635069,6.42663 5.45606961,5.66090778 C6.78746341,4.85805444 8.25206673,3.42226111 9.23032538,1.37893778 Z" id="Shape" fill="#464D77" fill-rule="nonzero"></path>
                    <path d="M10.0327178,3.25465778 C9.83191966,3.2696703 9.65539441,3.39807967 9.57343579,3.58875222 C8.82322985,5.33092 7.93139855,6.28683222 6.95474882,6.88063056 C5.97814033,7.47438611 4.88189494,7.70679778 3.70763803,7.88321333 C3.43942122,7.92360449 3.24041638,8.16196265 3.24027025,8.44300333 C3.23975038,8.4572575 3.23975038,8.47152695 3.24027025,8.48578111 C3.24027025,8.48578111 3.42426357,10.9070889 3.89295148,13.8330033 C4.3617219,16.758875 5.08849551,20.1795572 6.30210884,22.3300817 C7.42108525,24.3128744 9.72619975,26.4372617 11.7650602,28.1284811 C13.8039207,29.8196578 15.584283,31.0527272 15.584283,31.0527272 C15.7762233,31.1852607 16.0277796,31.1784116 16.2127481,31.0356161 C16.2127481,31.0356161 17.9505773,29.6904689 19.943357,27.8690767 C21.9361366,26.0476844 24.1875383,23.7710083 25.2773893,21.7364544 C26.3468195,19.7400156 27.0095668,16.6146283 27.4448388,13.9412311 C27.8801109,11.2678339 28.0652594,9.06186944 28.0652594,9.06186944 C28.0887036,8.79401484 27.9271184,8.54604687 27.6787084,8.46867 C23.4633224,7.12343722 22.8818871,5.65633056 21.8531746,3.93187278 C21.757527,3.77188071 21.5914267,3.67166951 21.410023,3.66451167 L10.0893184,3.25512833 C10.0704917,3.25411623 10.051627,3.25411623 10.0328003,3.25512833 L10.0327178,3.25465778 Z M10.2905559,4.39096389 L21.1197591,4.78366389 C22.0243792,6.30796444 23.220212,8.00987833 26.9291625,9.32880278 C26.90441,9.62653611 26.7596081,11.3258833 26.3651364,13.7486456 C25.9378676,16.3730194 25.2391055,19.4660667 24.3185613,21.1846211 C23.3775964,22.941205 21.1746683,25.2281906 19.2181923,27.01643 C17.425165,28.6552467 16.1180286,29.6689944 15.8662961,29.8654728 C15.6035074,29.6819561 14.2771053,28.7659556 12.4499609,27.2503817 C10.4514882,25.5927 8.19773507,23.4496617 7.2448477,21.7610944 C6.19728215,19.9048811 5.43300856,16.5218433 4.97265398,13.6483744 C4.55041819,11.0130494 4.41250571,9.18532611 4.38445291,8.83587444 C5.43094585,8.65620778 6.50462525,8.47012444 7.51073042,7.85831667 C8.58011939,7.20818 9.5037576,6.011985 10.2905559,4.39100667 L10.2905559,4.39096389 Z" id="Shape" fill="#464D77" fill-rule="nonzero"></path>
                </g>
            </g>
        </g>
    </g>
</svg>